<svg width="25" height="28" xmlns="http://www.w3.org/2000/svg" xmlns:xlink="http://www.w3.org/1999/xlink"><defs><path id="a" d="M0 0.0000244834333L12.9330741 0.0000244834333 12.9330741 23 0 23z"/></defs><g transform="translate(3 3)" fill="none" fill-rule="evenodd"><mask id="b" fill="#fff"><use xlink:href="#a"/></mask><path d="M1.986 7.626a.706.706 0 0 0-.702.709v6.33c0 .391.315.709.702.709H6.02a.64.64 0 0 1 .454.19l5.176 5.224V2.212L6.473 7.437a.64.64 0 0 1-.454.19H1.986zM12.291 23a.64.64 0 0 1-.454-.19l-6.084-6.14H1.986C.891 16.67 0 15.77 0 14.665v-6.33C0 7.23.89 6.33 1.986 6.33h3.767L11.837.19a.638.638 0 0 1 .7-.14c.24.1.396.336.396.598v21.704a.648.648 0 0 1-.642.648z" fill="#EF6C53" mask="url(#b)"/><path d="M15.616 19a.588.588 0 0 1-.436-.198.721.721 0 0 1 0-.954C16.85 16.02 17.77 13.587 17.77 11c0-2.587-.92-5.019-2.589-6.848a.721.721 0 0 1 0-.954.578.578 0 0 1 .871 0C17.953 5.282 19 8.053 19 11c0 2.947-1.047 5.718-2.949 7.802a.588.588 0 0 1-.435.198" fill="#EF6C53"/></g></svg>