<svg width="153" height="27" xmlns="http://www.w3.org/2000/svg" xmlns:xlink="http://www.w3.org/1999/xlink"><defs><path id="a" d="M0.0001 0.8372L25.1631 0.8372 25.1631 26 0.0001 26z"/><path id="c" d="M0 26.163L149.618 26.163 149.618 1 0 1z"/></defs><g transform="translate(1)" fill="none" fill-rule="evenodd"><g transform="translate(0 .163)"><mask id="b" fill="#fff"><use xlink:href="#a"/></mask><path d="M24.665 22.647c-.245.621-.809 1.495-1.609 2.112a5.259 5.259 0 0 1-1.772.92c-.807.24-1.803.321-3.04.321H6.92c-1.239 0-2.234-.082-3.042-.32a5.263 5.263 0 0 1-1.77-.92c-.8-.618-1.366-1.492-1.61-2.113C.005 21.395 0 19.974 0 19.08V7.756c0-.894.005-2.314.498-3.566.244-.62.81-1.496 1.61-2.112a5.264 5.264 0 0 1 1.77-.92c.808-.24 1.803-.32 3.042-.32h11.323c1.238 0 2.234.08 3.041.32a5.26 5.26 0 0 1 1.772.92c.8.616 1.364 1.491 1.61 2.112.492 1.252.497 2.672.497 3.566V19.08c0 .894-.005 2.315-.498 3.567" fill="#EF6C53" mask="url(#b)"/></g><path d="M12.4 7.848a4.801 4.801 0 0 1 4.984 4.792c0 1.377-.584 2.62-1.516 3.495a.367.367 0 0 0-.114.288c.018.33.011.65-.01 1.011a.116.116 0 0 0 .18.103 5.924 5.924 0 0 0 2.593-4.897 5.934 5.934 0 0 0-6.162-5.923C9.216 6.838 6.7 9.424 6.66 12.563a5.922 5.922 0 0 0 2.593 4.974.116.116 0 0 0 .18-.103 8.379 8.379 0 0 1-.01-1.01.37.37 0 0 0-.114-.289 4.777 4.777 0 0 1-1.515-3.623A4.808 4.808 0 0 1 12.4 7.848m.16-4.06c-4.816.014-8.762 3.921-8.822 8.738-.049 3.901 2.441 7.238 5.92 8.462a.12.12 0 0 0 .156-.129 53.429 53.429 0 0 1-.129-.907.304.304 0 0 0-.178-.24c-2.75-1.2-4.668-3.958-4.638-7.15.04-4.19 3.463-7.607 7.653-7.64 4.284-.035 7.78 3.44 7.78 7.715a7.727 7.727 0 0 1-4.637 7.075.304.304 0 0 0-.18.24c-.04.3-.082.604-.127.907a.119.119 0 0 0 .157.13c3.444-1.213 5.92-4.498 5.92-8.352 0-4.888-3.985-8.862-8.875-8.849m-2.034 8.127a2.06 2.06 0 1 0 4.12.001 2.06 2.06 0 0 0-4.12 0m3.881 3.547c-.378-.398-1.04-.654-1.824-.654-.783 0-1.446.256-1.824.654a1.158 1.158 0 0 0-.333.725c-.064.588-.027 1.094.04 1.903.066.772.19 1.8.354 2.847.115.745.21 1.147.294 1.435.14.468.659.876 1.47.876.81 0 1.33-.408 1.469-.876.085-.288.18-.69.295-1.435.162-1.047.287-2.075.353-2.847.069-.809.104-1.315.04-1.903a1.158 1.158 0 0 0-.334-.725" fill="#FFF"/><path d="M34.463 13.855h3.752l-1.85-5.448h-.051l-1.851 5.448zm4.243 1.55h-4.733l-1.137 3.355h-2.005l4.484-12.419h2.083l4.483 12.42h-2.039l-1.136-3.357zm10.947-1.17c0-1.834-.947-3.039-2.393-3.039-1.42 0-2.375 1.23-2.375 3.038 0 1.824.955 3.046 2.375 3.046 1.446 0 2.393-1.196 2.393-3.046m1.91 0c0 2.813-1.506 4.621-3.778 4.621-1.29 0-2.315-.577-2.849-1.584h-.043v4.484h-1.858V9.707h1.8v1.506h.033c.516-.972 1.618-1.6 2.883-1.6 2.298 0 3.812 1.815 3.812 4.621m8.055 0c0-1.833-.947-3.038-2.393-3.038-1.42 0-2.375 1.23-2.375 3.038 0 1.824.955 3.046 2.375 3.046 1.446 0 2.393-1.196 2.393-3.046m1.91 0c0 2.813-1.506 4.621-3.778 4.621-1.29 0-2.315-.577-2.849-1.584h-.043v4.484H53V9.707h1.8v1.506h.033c.516-.972 1.618-1.6 2.883-1.6 2.298 0 3.812 1.815 3.812 4.621" fill="#EF6C53"/><mask id="d" fill="#fff"><use xlink:href="#c"/></mask><path fill="#EF6C53" mask="url(#d)" d="M63.033 18.76L64.892 18.76 64.892 6.341 63.033 6.341z"/><path d="M68.286 13.4h4.526c-.043-1.387-.929-2.299-2.22-2.299-1.283 0-2.21.93-2.306 2.298zm6.282 2.701c-.25 1.644-1.85 2.772-3.898 2.772-2.634 0-4.269-1.765-4.269-4.596 0-2.84 1.644-4.682 4.191-4.682 2.505 0 4.08 1.721 4.08 4.466v.637h-6.395v.112c0 1.55.973 2.565 2.436 2.565 1.032 0 1.842-.49 2.091-1.274h1.764zm7.274-3.2h2.212c1.678 0 2.633-.905 2.633-2.47 0-1.567-.955-2.463-2.624-2.463h-2.221V12.9zm2.729-6.56c2.409 0 4.087 1.662 4.087 4.08 0 2.427-1.712 4.096-4.148 4.096h-2.668v4.243h-1.928V6.341h4.657zm11.461 7.893c0-1.954-.896-3.107-2.4-3.107-1.507 0-2.403 1.162-2.403 3.107 0 1.962.896 3.106 2.402 3.106 1.505 0 2.401-1.144 2.401-3.106m-6.695 0c0-2.849 1.677-4.639 4.294-4.639 2.625 0 4.295 1.79 4.295 4.64 0 2.855-1.662 4.638-4.295 4.638s-4.294-1.783-4.294-4.639m11.795 0c0 1.858.947 3.046 2.393 3.046 1.428 0 2.383-1.205 2.383-3.046 0-1.825-.955-3.038-2.383-3.038-1.446 0-2.393 1.196-2.393 3.038m-1.901 0c0-2.797 1.54-4.622 3.786-4.622 1.3 0 2.324.602 2.84 1.601h.035V6.341h1.867v12.42h-1.808v-1.54h-.034c-.533 1.032-1.566 1.634-2.883 1.634-2.263 0-3.803-1.824-3.803-4.62m16.436-1.413c-.163-.955-.912-1.669-2.134-1.669-1.429 0-2.376 1.196-2.376 3.081 0 1.928.956 3.089 2.393 3.089 1.153 0 1.911-.576 2.117-1.626h1.79c-.206 1.901-1.729 3.176-3.924 3.176-2.582 0-4.268-1.765-4.268-4.639 0-2.814 1.686-4.639 4.251-4.639 2.323 0 3.77 1.463 3.924 3.227h-1.773zm8.772 2.548v-.697l-2.23.137c-1.11.07-1.737.55-1.737 1.326 0 .792.654 1.308 1.653 1.308 1.299 0 2.314-.895 2.314-2.074m-5.843.817c0-1.583 1.213-2.54 3.364-2.668l2.479-.137v-.69c0-1.006-.662-1.574-1.79-1.574-1.032 0-1.755.49-1.901 1.274h-1.74c.053-1.635 1.576-2.796 3.693-2.796 2.16 0 3.589 1.178 3.589 2.96v6.205h-1.782v-1.49h-.043c-.525 1.007-1.67 1.645-2.857 1.645-1.773 0-3.012-1.102-3.012-2.73m12.88-6.582c2.007 0 3.443 1.11 3.486 2.71h-1.747c-.077-.8-.757-1.29-1.79-1.29-1.007 0-1.677.464-1.677 1.17 0 .542.447.903 1.385 1.136l1.524.353c1.824.44 2.512 1.11 2.512 2.436 0 1.634-1.548 2.754-3.76 2.754-2.135 0-3.572-1.094-3.71-2.747h1.84c.13.87.828 1.334 1.956 1.334 1.11 0 1.807-.456 1.807-1.178 0-.56-.345-.86-1.291-1.102l-1.618-.395c-1.636-.397-2.462-1.232-2.462-2.488 0-1.6 1.438-2.693 3.546-2.693m7.73-2.04v2.143h1.722v1.472h-1.722v4.99c0 .776.345 1.138 1.102 1.138.19 0 .491-.027.611-.043v1.463c-.206.05-.619.086-1.032.086-1.833 0-2.548-.69-2.548-2.445v-5.19h-1.317V9.708h1.317V7.564h1.867zm6.719 2.04c2.006 0 3.442 1.11 3.485 2.71h-1.747c-.077-.8-.757-1.29-1.79-1.29-1.007 0-1.677.464-1.677 1.17 0 .542.447.903 1.385 1.136l1.524.353c1.824.44 2.512 1.11 2.512 2.436 0 1.634-1.548 2.754-3.76 2.754-2.135 0-3.572-1.094-3.71-2.747h1.84c.13.87.828 1.334 1.956 1.334 1.11 0 1.807-.456 1.807-1.178 0-.56-.345-.86-1.291-1.102l-1.618-.395c-1.636-.397-2.462-1.232-2.462-2.488 0-1.6 1.438-2.693 3.546-2.693" fill="#EF6C53" mask="url(#d)"/></g></svg>