<svg width="27" height="16" xmlns="http://www.w3.org/2000/svg" xmlns:xlink="http://www.w3.org/1999/xlink"><defs><path id="a" d="M0.5 0.5L14.5 0.5 14.5 25.5 0.5 25.5z"/></defs><g transform="matrix(0 1 1 0 .5 .5)" fill="none" fill-rule="evenodd"><mask id="b" fill="#fff"><use xlink:href="#a"/></mask><path d="M.956 22.833a1.567 1.567 0 0 0 0 2.21 1.546 1.546 0 0 0 2.2 0l10.888-10.938a1.567 1.567 0 0 0 0-2.21L3.155.958a1.55 1.55 0 0 0-2.2 0 1.567 1.567 0 0 0 0 2.21L11.02 13 .956 22.833z" fill="#F16B4E" mask="url(#b)"/></g></svg>