<svg width="14" height="35" xmlns="http://www.w3.org/2000/svg" xmlns:xlink="http://www.w3.org/1999/xlink"><defs><path id="a" d="M0.22265625 0.84375L33.2226562 0.84375 33.2226562 12.84375 0.22265625 12.84375z"/></defs><g transform="rotate(90 6.5 7)" fill="none" fill-rule="evenodd"><mask id="b" fill="#fff"><use xlink:href="#a"/></mask><path d="M33.001 6.314l-5.29-5.25a.76.76 0 0 0-1.068 0 .746.746 0 0 0 0 1.06l4 3.97H.977a.752.752 0 0 0-.755.75c0 .414.338.75.755.75h29.664l-4 3.97a.746.746 0 0 0 0 1.06.756.756 0 0 0 1.07 0l5.29-5.25a.746.746 0 0 0 0-1.06" fill="#1E1E1E" mask="url(#b)"/></g></svg>