<svg width="30" height="30" xmlns="http://www.w3.org/2000/svg" xmlns:xlink="http://www.w3.org/1999/xlink"><defs><path id="a" d="M0.183697297 0.096L23.9962378 0.096 23.9962378 23.9080865 0.183697297 23.9080865z"/></defs><g transform="translate(3 3)" fill="none" fill-rule="evenodd"><mask id="b" fill="#fff"><use xlink:href="#a"/></mask><path d="M23.996 22.594c0 .726-.588 1.314-1.314 1.314h-6.068v-9.221h3.095l.463-3.594h-3.558V8.798c0-1.04.289-1.749 1.781-1.749l1.903-.001V3.834a25.492 25.492 0 0 0-2.773-.142c-2.744 0-4.623 1.674-4.623 4.751v2.65H9.8v3.594h3.103v9.221H1.498a1.314 1.314 0 0 1-1.314-1.314V1.41C.184.684.772.096 1.498.096h21.184c.726 0 1.314.588 1.314 1.314v21.184z" fill="#EF6C53" mask="url(#b)"/></g></svg>