<svg width="30" height="30" xmlns="http://www.w3.org/2000/svg" xmlns:xlink="http://www.w3.org/1999/xlink"><defs><path id="a" d="M0.0000648648649 0.213031579L23.7814703 0.213031579 23.7814703 23.3684211 0.0000648648649 23.3684211z"/></defs><g transform="translate(3 3)" fill="none" fill-rule="evenodd"><mask id="b" fill="#fff"><use xlink:href="#a"/></mask><path d="M21.552 20.474c0 .4-.333.724-.743.724H2.973a.735.735 0 0 1-.744-.724V9.62h2.973c-.387.543-.517 1.556-.517 2.198 0 3.875 3.245 7.028 7.233 7.028 3.99 0 7.235-3.153 7.235-7.028 0-.642-.094-1.64-.574-2.198h2.973v10.855zM11.918 7.375c2.526 0 4.574 1.989 4.574 4.442 0 2.454-2.048 4.443-4.574 4.443-2.525 0-4.573-1.989-4.573-4.443 0-2.453 2.048-4.442 4.573-4.442zm5.175-3.544c0-.4.333-.724.743-.724h2.23c.41 0 .743.325.743.724V6c0 .4-.333.724-.744.724h-2.229a.734.734 0 0 1-.743-.724v-2.17zM20.955.213H2.827C1.266.213 0 1.443 0 2.959v17.663c0 1.517 1.266 2.747 2.827 2.747h18.128c1.561 0 2.826-1.23 2.826-2.747V2.959c0-1.517-1.265-2.746-2.826-2.746z" fill="#EF6C53" mask="url(#b)"/></g></svg>