<svg width="46" height="22" xmlns="http://www.w3.org/2000/svg" xmlns:xlink="http://www.w3.org/1999/xlink"><defs><path id="a" d="M0 0L43 0 43 16 0 16z"/></defs><g transform="rotate(-180 22.5 9.5)" fill="none" fill-rule="evenodd"><mask id="b" fill="#fff"><use xlink:href="#a"/></mask><path d="M42.711 7.293l-6.893-7a.974.974 0 0 0-1.392 0 1.01 1.01 0 0 0 0 1.414L39.638 7H.985A.992.992 0 0 0 0 8c0 .553.44 1 .985 1h38.653l-5.212 5.293a1.01 1.01 0 0 0 0 1.414.974.974 0 0 0 1.392 0l6.893-7a1.01 1.01 0 0 0 0-1.414" fill="#1E1E1E" mask="url(#b)"/></g></svg>