<svg height="80" viewBox="0 0 80 80" width="80" xmlns="http://www.w3.org/2000/svg" xmlns:xlink="http://www.w3.org/1999/xlink"><mask id="a" fill="#fff"><path d="m.000075.194625h68.8053v68.8053h-68.8053z" fill="#fff" fill-rule="evenodd"/></mask><g fill="#1E1E1E" fill-rule="evenodd" transform="translate(5 5)"><path d="m25.10283 49.9606944h7v-28h-7z"/><path d="m37.10283 49.9606944h7v-28h-7z"/><path d="m34.402575 65.794425c-17.22975 0-31.197-13.96725-31.197-31.197s13.96725-31.197375 31.197-31.197375 31.197 13.967625 31.197 31.197375-13.96725 31.197-31.197 31.197m0-65.599875c-19.000125 0-34.4025 15.40275-34.4025 34.402875s15.402375 34.4025 34.4025 34.4025 34.402875-15.402375 34.402875-34.4025-15.40275-34.402875-34.402875-34.402875" mask="url(#a)" transform="translate(.10283 .960694)"/></g></svg>