<svg width="87" height="88" xmlns="http://www.w3.org/2000/svg" xmlns:xlink="http://www.w3.org/1999/xlink"><defs><path id="a" d="M0.0000801242236 0.153825697L85.8474969 0.153825697 85.8474969 86.7306502 0.0000801242236 86.7306502z"/></defs><g transform="translate(1 1)" fill="none" fill-rule="evenodd"><path fill="#1E1E1E" d="M32 25L32 61 65 42.9998651z"/><mask id="b" fill="#fff"><use xlink:href="#a"/></mask><path d="M42.924 82.697C21.426 82.697 4 65.122 4 43.442 4 21.762 21.426 4.187 42.924 4.187c21.497 0 38.924 17.575 38.924 39.255 0 21.68-17.427 39.255-38.924 39.255m0-82.543C19.218.154 0 19.534 0 43.442 0 67.35 19.218 86.731 42.924 86.731S85.848 67.35 85.848 43.442C85.848 19.535 66.63.154 42.924.154" fill="#1E1E1E" mask="url(#b)"/></g></svg>