<svg width="56" height="56" xmlns="http://www.w3.org/2000/svg" xmlns:xlink="http://www.w3.org/1999/xlink"><defs><path id="a" d="M0.000228169014 0.27L53.73 0.27 53.73 54 0.000228169014 54z"/></defs><g transform="translate(1 1)" fill="none" fill-rule="evenodd"><path fill="#FFF" d="M20 16L20 38 41 27.0003752z"/><mask id="b" fill="#fff"><use xlink:href="#a"/></mask><path d="M26.865 51.497c-13.455 0-24.362-10.907-24.362-24.362 0-13.455 10.907-24.362 24.362-24.362 13.454 0 24.361 10.907 24.361 24.362 0 13.455-10.907 24.362-24.361 24.362m0-51.227C12.028.27 0 12.298 0 27.135c0 14.837 12.028 26.866 26.865 26.866C41.703 54 53.73 41.972 53.73 27.135S41.703.27 26.865.27" fill="#FFF" mask="url(#b)"/></g></svg>