<svg width="50" height="20" xmlns="http://www.w3.org/2000/svg" xmlns:xlink="http://www.w3.org/1999/xlink"><defs><path id="a" d="M0 1L48 1 48 19 0 19z"/></defs><g transform="rotate(-180 24.5 10)" fill="none" fill-rule="evenodd"><mask id="b" fill="#fff"><use xlink:href="#a"/></mask><path d="M47.678 9.205L39.983 1.33a1.081 1.081 0 0 0-1.554 0c-.43.44-.43 1.151 0 1.59l5.818 5.955H1.099C.492 8.875 0 9.378 0 10s.492 1.125 1.1 1.125h43.147l-5.818 5.955c-.43.44-.43 1.151 0 1.59a1.083 1.083 0 0 0 1.554 0l7.695-7.875c.43-.439.43-1.15 0-1.59" fill="#1E1E1E" mask="url(#b)"/></g></svg>