<svg width="30" height="30" xmlns="http://www.w3.org/2000/svg" xmlns:xlink="http://www.w3.org/1999/xlink"><defs><path id="a" d="M0.204126316 0.604927273L23.8591579 0.604927273 23.8591579 20.4664727 0.204126316 20.4664727z"/></defs><g transform="translate(3 5)" fill="none" fill-rule="evenodd"><mask id="b" fill="#fff"><use xlink:href="#a"/></mask><path d="M23.206.972a9.516 9.516 0 0 1-3.083 1.215A4.77 4.77 0 0 0 16.58.605c-2.679 0-4.851 2.244-4.851 5.014 0 .392.041.774.124 1.141-4.033-.209-7.608-2.203-10.003-5.24a5.135 5.135 0 0 0-.657 2.523c0 1.74.856 3.274 2.16 4.173a4.738 4.738 0 0 1-2.2-.625v.062c0 2.43 1.672 4.457 3.894 4.916a4.617 4.617 0 0 1-1.279.176c-.312 0-.617-.03-.913-.089.618 1.992 2.409 3.442 4.534 3.48a9.543 9.543 0 0 1-7.186 2.08c2.147 1.42 4.7 2.25 7.44 2.25 8.927 0 13.808-7.638 13.808-14.265 0-.218-.005-.436-.013-.65a10.014 10.014 0 0 0 2.42-2.595 9.416 9.416 0 0 1-2.787.789A5 5 0 0 0 23.206.972" fill="#EF6C53" mask="url(#b)"/></g></svg>