<svg width="174" height="157" xmlns="http://www.w3.org/2000/svg" xmlns:xlink="http://www.w3.org/1999/xlink"><defs><path id="a" d="M0.902299679 0.257815204L16.4283981 0.257815204 16.4283981 11.1428571 0.902299679 11.1428571z"/></defs><g transform="translate(1 2)" fill="none" fill-rule="evenodd"><g transform="translate(22 140)"><mask id="b" fill="#fff"><use xlink:href="#a"/></mask><path d="M1.129 5.464l.946-.948c.312-.31.684-.313 1.027-.03L6.84 7.564l2.093-2.092-3.007-2.476c-.343-.283-.376-.619-.064-.93l.96-.962c.31-.311.684-.314 1.026-.032l3.008 2.477 3.039-3.04c.325-.325.697-.328 1.04-.046l1.215 1.001c.344.282.376.618.05.944L7.72 10.892c-.325.325-.698.328-1.04.045l-5.5-4.529c-.343-.282-.376-.618-.05-.944" fill="#1E1E1E" mask="url(#b)"/></g><path d="M26.675 128.69l-9.684 7.147c-.371.274-.711.195-.959-.181l-.878-1.332c-.247-.375-.201-.74.17-1.014l9.684-7.147c.371-.274.712-.195.96.18l.878 1.333c.248.375.2.74-.171 1.014m-16.45-18.614l1.916-.729c2.687-1.02 5.225.258 6.386 3.181 1.173 2.96.117 5.584-2.644 6.633l-3.869 1.47c-2.762 1.05-5.35-.188-6.524-3.148-1.1-2.776-.332-5.143 2.147-6.36.354-.197.667-.063.812.305l.627 1.582c.147.367.016.586-.24.81-.96.576-1.236 1.57-.79 2.692.516 1.306 1.686 1.855 2.945 1.377l3.888-1.478c1.257-.479 1.741-1.656 1.224-2.962-.51-1.287-1.624-1.858-2.788-1.416l-.47.178.519 1.306c.159.405.003.718-.41.876l-.884.335c-.413.157-.744.03-.905-.376l-1.341-3.383c-.161-.404-.01-.736.401-.893M.637 89.952l11.854-.948c.455-.037.712.16.75.555l.138 1.421c.038.396-.178.63-.631.667l-4.644.371.36 3.74 4.644-.37c.455-.037.715.177.752.573l.136 1.402c.038.395-.176.648-.63.684l-11.855.949c-.454.036-.714-.179-.753-.574l-.136-1.403c-.037-.395.177-.648.631-.684l4.524-.362-.36-3.74-4.525.363c-.454.036-.712-.162-.75-.557l-.138-1.42c-.038-.396.178-.63.633-.667m2.786-25.934l1.303.248c.427.08.612.377.531.804l-.52 2.734 9.693 1.841c.447.084.632.381.552.807l-.289 1.514c-.084.446-.362.634-.81.55L4.19 70.674l-.528 2.772c-.081.428-.36.615-.786.535l-1.303-.247c-.446-.086-.635-.362-.553-.79l1.596-8.377c.081-.426.362-.634.808-.55M19.198 31.16l1.078.77c.353.253.397.6.143.952l-2.768 3.85 2.381 1.7 2.226-3.095c.253-.353.597-.424.95-.17l1.095.78c.354.254.397.601.143.954l-2.225 3.094 3.46 2.471c.369.265.412.612.16.964l-.9 1.251c-.255.353-.598.424-.967.159l-9.654-6.896c-.37-.264-.414-.611-.16-.964l4.07-5.66c.255-.354.598-.425.968-.16m19.617-7.234l-2.175-3.03c-.801-1.117-2.019-1.216-3.047-.27-1.043.96-1.207 2.328-.405 3.445l2.176 3.03c.8 1.116 2.018 1.216 3.061.256 1.028-.946 1.192-2.315.39-3.431m-5.503 5.141l-2.244-3.125c-1.717-2.393-1.342-5.36.968-7.484 2.282-2.1 4.937-1.921 6.656.471l2.243 3.126c1.717 2.393 1.328 5.371-.953 7.472-2.31 2.125-4.952 1.933-6.67-.46M52.87 13.081l2.395-1.115c1.037-.481 1.4-1.467.966-2.616-.427-1.13-1.324-1.553-2.36-1.071l-2.395 1.114 1.394 3.688zm8.827 3.052c.437.38.396.771-.087.995l-1.752.815c-.375.175-.634.156-.97-.177l-3.104-2.87-1.894.881 1.326 3.51c.173.455.03.802-.363.984l-1.394.65c-.393.182-.717.052-.889-.404L48.072 8.622c-.172-.456-.03-.803.363-.985l4.684-2.179c2.431-1.13 4.7-.134 5.734 2.602.75 1.982.498 3.871-.598 5.197l3.442 2.876zm26.67-13.376l-.15 2.937 2.38.136c.845.049 1.43-.49 1.475-1.368.046-.896-.481-1.52-1.325-1.568l-2.38-.137zm3.817 7.091c.046-.918-.48-1.54-1.325-1.589l-2.764-.16-.155 3.06 2.763.159c.846.049 1.432-.53 1.48-1.47zm2.81.755c-.11 2.142-1.564 3.51-3.657 3.39l-5.7-.327c-.422-.025-.66-.284-.635-.753L85.623.677c.025-.469.286-.7.708-.675l5.318.305c2.092.12 3.4 1.627 3.293 3.748-.084 1.652-.99 2.806-2.269 2.978l-.009.164c1.483.372 2.418 1.652 2.33 3.406zm14.561.379l2.347.895c1.016.387 1.843-.05 2.197-1.161.348-1.093-.046-2.016-1.06-2.404l-2.349-.895-1.135 3.565zm4.52 8.322c.092.572-.163.818-.636.638l-1.717-.654c-.369-.14-.542-.336-.588-.805l-.553-4.187-1.857-.707-1.08 3.39c-.14.442-.442.585-.827.438l-1.368-.521c-.384-.148-.538-.464-.398-.905l3.664-11.498c.14-.441.441-.584.826-.437l4.59 1.75c2.382.908 3.423 3.196 2.58 5.841-.611 1.916-1.882 3.066-3.426 3.229l.79 4.428zm8.077 2.804l7.012-9.769c.269-.375.644-.434 1.043-.202l1.415.818c.399.231.495.562.227.937l-7.013 9.769c-.27.374-.646.433-1.045.203l-1.414-.819c-.399-.23-.494-.562-.225-.937m19.134 16.62l-.86 1.018c-.295.35-.612.33-.89-.009l-4.325-5.299c-.277-.34-.288-.723.007-1.073l7.697-9.111c.295-.35.613-.33.891.01l.984 1.204c.277.34.286.724-.008 1.073l-6.402 7.577 2.9 3.554c.278.34.288.722.006 1.057m10.105 12.444l-1.103.7c-.379.24-.7.131-.91-.267l-3.263-6.205c-.21-.398-.135-.76.244-1l9.875-6.275c.379-.24.7-.13.909.268l.742 1.411c.209.398.136.758-.243 1l-8.213 5.218 2.188 4.161c.21.398.135.76-.226.99m2.14 11.16l12.02-3.292c.461-.127.782.038.918.428l.484 1.383c.136.391-.024.687-.485.813l-12.019 3.292c-.461.127-.781-.038-.919-.428l-.483-1.383c-.136-.391.024-.687.484-.814m8.144 17.631l5.233-1.482-.011-.154-5.412-.893.19 2.53zm-4.998 3.53l-.123-1.642c-.023-.307.164-.506.524-.594l1.97-.552-.28-3.726-2.038-.337c-.37-.048-.586-.226-.61-.533l-.117-1.556c-.032-.426.239-.613.753-.538l12.396 2.406c.432.063.629.258.656.617l.19 2.512c.026.36-.14.574-.558.7l-11.936 3.696c-.497.146-.793-.01-.827-.454zm-.64 13.528l12.45 2.496c.41.082.582.322.488.677l-.55 2.059c-.086.32-.305.5-.666.558l-9.124 1.855-.053.195.996.069 7.086 1.42c.409.083.582.323.488.678l-.408 1.526c-.095.355-.372.505-.782.423l-12.449-2.496c-.41-.082-.583-.322-.487-.677l.55-2.059c.083-.32.305-.5.665-.558l9.119-1.837.057-.213-.996-.069-7.084-1.42c-.41-.083-.583-.322-.49-.678l.408-1.526c.095-.355.372-.505.782-.423m-1.171 21.63l3.624 1.918c2.586 1.369 3.246 3.998 1.643 6.644-1.575 2.598-4.063 3.56-6.806 2.108-.353-.186-.464-.463-.265-.79l.856-1.414c.2-.33.466-.385.848-.247 1.22.515 2.286.21 2.975-.923.706-1.167.4-2.349-.778-2.972l-3.518-1.862c-1.18-.624-2.42-.26-3.129.906-.707 1.167-.41 2.171.685 2.858.322.236.407.476.208.806l-.856 1.413c-.2.33-.51.382-.897.177-2.762-1.462-3.076-3.972-1.532-6.52 1.604-2.647 4.355-3.47 6.942-2.101m-10.84 23.319l-1.95-1.95-3.178 3.178c-.33.33-.705.315-1.035-.015l-.958-.96c-.33-.33-.346-.704-.016-1.034l3.18-3.177-2.04-2.04-3.763 3.762c-.314.315-.69.33-1.02 0l-1.004-1.005c-.33-.329-.315-.704 0-1.019l5.473-5.47c.315-.315.69-.33 1.019 0l9.025 9.026c.329.33.314.704 0 1.019l-5.473 5.471c-.315.315-.69.33-1.02 0l-1.005-1.004c-.329-.33-.314-.705 0-1.02l3.764-3.762z" fill="#1E1E1E"/></g></svg>