<svg width="286" height="252" xmlns="http://www.w3.org/2000/svg" xmlns:xlink="http://www.w3.org/1999/xlink"><defs><path id="a" d="M0.165338907 0.16250942L24.7634533 0.16250942 24.7634533 19 0.165338907 19z"/><path id="c" d="M0.497996949 0.0575L17.5232032 0.0575 17.5232032 22.579198 0.497996949 22.579198z"/></defs><g fill="none" fill-rule="evenodd" opacity=".219"><g transform="translate(41 233)"><mask id="b" fill="#fff"><use xlink:href="#a"/></mask><path d="M.524 9.173l1.5-1.64c.493-.538 1.082-.543 1.626-.054l5.924 5.328 3.316-3.62L8.126 4.9c-.544-.489-.596-1.07-.103-1.609l1.523-1.664c.492-.538 1.083-.543 1.625-.054l4.764 4.285L20.752.597C21.267.034 21.856.03 22.4.517l1.926 1.733c.543.489.594 1.07.079 1.634l-13.44 14.682c-.515.562-1.104.568-1.648.079L.603 10.807c-.542-.49-.594-1.07-.08-1.634" fill="#000" mask="url(#b)"/></g><path d="M44.458 214.304l-16.14 11.435c-.618.44-1.185.312-1.598-.289l-1.463-2.13c-.413-.602-.335-1.186.284-1.624l16.14-11.435c.618-.439 1.185-.312 1.599.288l1.463 2.132c.413.6.335 1.185-.285 1.623m-27.872-32.51l3.147-1.215c4.413-1.701 8.584.429 10.489 5.301 1.929 4.934.194 9.306-4.343 11.055l-6.356 2.451c-4.537 1.75-8.788-.314-10.717-5.249-1.81-4.626-.547-8.569 3.526-10.598.582-.33 1.096-.105 1.335.507l1.03 2.636c.24.613.027.977-.395 1.352-1.577.96-2.03 2.616-1.3 4.486.85 2.175 2.773 3.092 4.84 2.295l6.387-2.462c2.067-.799 2.862-2.763 2.013-4.938-.84-2.146-2.669-3.097-4.581-2.359l-.772.297.85 2.176c.265.674.006 1.196-.672 1.458l-1.45.56c-.679.261-1.223.048-1.488-.626l-2.204-5.639c-.264-.674-.018-1.227.66-1.489M1.093 146.715l20.322-1.707c.78-.066 1.221.289 1.287 1l.234 2.556c.067.712-.304 1.136-1.083 1.201l-7.96.668.62 6.731 7.958-.667c.78-.066 1.226.32 1.29 1.032l.233 2.524c.065.713-.302 1.167-1.081 1.232L2.59 162.993c-.78.065-1.225-.322-1.29-1.035l-.233-2.523c-.064-.712.303-1.166 1.081-1.233l7.757-.65-.619-6.732-7.756.651c-.779.066-1.222-.289-1.287-1l-.236-2.556c-.065-.712.305-1.135 1.085-1.2m4.063-38.684l2.232.42c.732.138 1.05.643.911 1.368l-.894 4.649 16.62 3.129c.766.143 1.084.647.944 1.373l-.494 2.571c-.146.76-.621 1.08-1.388.935l-16.619-3.13-.906 4.716c-.14.725-.615 1.045-1.348.906l-2.232-.419c-.765-.144-1.089-.615-.95-1.34l2.736-14.243c.14-.725.622-1.078 1.388-.935m26.508-53.757l1.797 1.321c.59.433.661 1.026.239 1.631l-4.613 6.6 3.968 2.915 3.71-5.306c.422-.605.995-.726 1.584-.293l1.824 1.34c.59.434.662 1.029.239 1.633l-3.71 5.306 5.767 4.236c.616.453.687 1.047.265 1.652l-1.5 2.145c-.422.604-.994.725-1.61.272l-16.09-11.822c-.617-.453-.688-1.047-.266-1.652l6.784-9.705c.423-.606.995-.726 1.612-.273M65.16 40.378l-3.988-4.977c-1.47-1.835-3.7-1.997-5.585-.443-1.913 1.576-2.212 3.824-.743 5.658l3.988 4.98c1.469 1.834 3.7 1.996 5.612.42 1.885-1.554 2.186-3.803.716-5.638m-10.088 8.447l-4.114-5.135c-3.149-3.93-2.462-8.804 1.773-12.296 4.186-3.449 9.053-3.155 12.202.775l4.113 5.136c3.148 3.932 2.437 8.825-1.747 12.274-4.236 3.492-9.078 3.177-12.227-.754m34.275-26.199l4.106-1.74c1.778-.755 2.401-2.293 1.656-4.09-.733-1.765-2.269-2.426-4.047-1.673l-4.105 1.742 2.39 5.761zm15.132 4.769c.75.593.68 1.205-.148 1.555l-3.003 1.274c-.644.273-1.089.242-1.665-.277l-5.32-4.484-3.248 1.377 2.275 5.483c.295.712.05 1.253-.622 1.538l-2.392 1.014c-.673.286-1.227.083-1.521-.63L81.124 15.66c-.296-.713-.052-1.254.623-1.539l8.029-3.404c4.167-1.766 8.057-.21 9.83 4.065 1.286 3.097.853 6.049-1.026 8.12l5.9 4.494z" fill="#000"/><g transform="translate(142)"><mask id="d" fill="#fff"><use xlink:href="#c"/></mask><path d="M6.23 4.493l-.253 4.724 4.051.22c1.438.078 2.435-.789 2.51-2.2.08-1.443-.818-2.446-2.255-2.524l-4.053-.22zM12.728 15.9c.08-1.476-.817-2.48-2.254-2.557l-4.706-.256-.265 4.922 4.705.255c1.439.077 2.44-.855 2.52-2.364zm4.785 1.213c-.186 3.446-2.662 5.647-6.225 5.453l-9.706-.525c-.718-.04-1.121-.456-1.081-1.21L1.56 1.147C1.6.392 2.046.022 2.764.06l9.053.491c3.562.193 5.79 2.617 5.608 6.03-.144 2.657-1.687 4.514-3.864 4.791l-.014.263c2.524.598 4.117 2.658 3.965 5.479z" fill="#000" mask="url(#d)"/></g><path d="M183.351 16.345l4.305 1.455c1.862.629 3.377-.081 4.027-1.887.637-1.776-.084-3.277-1.946-3.907l-4.304-1.454-2.082 5.793zm8.286 13.522c.169.931-.298 1.332-1.166 1.038l-3.147-1.063c-.675-.228-.992-.545-1.08-1.308l-1.011-6.804-3.405-1.15-1.981 5.512c-.258.716-.81.949-1.515.71l-2.507-.846c-.706-.24-.989-.755-.731-1.47L181.81 5.8c.258-.716.81-.948 1.517-.71l8.413 2.844c4.369 1.477 6.274 5.195 4.73 9.492-1.12 3.114-3.448 4.982-6.28 5.246l1.447 7.195zm15.607 8.98l11.218-16.282c.43-.624 1.03-.722 1.67-.338l2.263 1.365c.639.384.792.937.362 1.56l-11.22 16.283c-.43.624-1.032.723-1.67.338l-2.263-1.364c-.638-.385-.791-.938-.36-1.562m29.07 21.246l-1.547 1.527c-.53.523-1.102.495-1.603-.015l-7.785-7.948c-.499-.51-.517-1.084.014-1.608l13.855-13.669c.53-.523 1.103-.495 1.603.015l1.77 1.808c.498.51.517 1.084-.014 1.608l-11.523 11.366 5.22 5.331c.5.51.518 1.084.01 1.585m17.67 27.548l-1.838 1.151c-.631.395-1.166.215-1.516-.439l-5.439-10.196c-.348-.654-.225-1.246.405-1.64l16.46-10.31c.631-.394 1.167-.214 1.515.44l1.237 2.319c.349.654.227 1.245-.404 1.64l-13.69 8.575 3.648 6.835c.348.654.225 1.247-.378 1.625m4.851 16.47l18.889-6.035c.724-.23 1.227.07 1.441.786l.762 2.537c.213.715-.038 1.258-.762 1.49l-18.888 6.034c-.725.232-1.228-.07-1.443-.786l-.76-2.535c-.214-.716.037-1.26.761-1.49m13.488 32.22l8.598-2.817-.019-.292-8.893-1.697.314 4.806zm-8.21 6.705l-.204-3.118c-.04-.584.27-.962.862-1.13l3.236-1.048-.461-7.08-3.347-.64c-.607-.091-.963-.428-1-1.013l-.195-2.955c-.052-.81.393-1.165 1.237-1.022l20.365 4.571c.71.119 1.034.49 1.079 1.172l.31 4.773c.045.682-.229 1.09-.914 1.328l-19.61 7.024c-.817.278-1.305-.018-1.359-.862zm-1.367 18.003l19.451 4.576c.64.15.911.592.764 1.243l-.86 3.774c-.133.585-.477.916-1.041 1.023l-14.256 3.4-.08.358 1.555.126 11.07 2.604c.64.151.91.591.763 1.243l-.637 2.797c-.149.65-.581.926-1.22.776l-19.453-4.576c-.64-.15-.91-.591-.763-1.242l.86-3.774c.132-.586.477-.916 1.04-1.024l14.248-3.367.089-.39-1.556-.126-11.07-2.605c-.639-.15-.91-.59-.762-1.242l.636-2.798c.148-.651.582-.927 1.222-.776m-3.824 37.156l5.954 3.516c4.248 2.509 5.333 7.328 2.699 12.181-2.586 4.762-6.674 6.526-11.183 3.865-.578-.342-.761-.849-.433-1.45l1.406-2.592c.33-.603.764-.704 1.392-.453 2.006.945 3.757.388 4.887-1.692 1.162-2.139.66-4.306-1.277-5.45l-5.78-3.413c-1.937-1.143-3.977-.478-5.14 1.662-1.16 2.14-.672 3.98 1.125 5.24.528.433.67.873.343 1.477l-1.407 2.592c-.327.602-.837.7-1.473.324-4.539-2.68-5.054-7.283-2.517-11.955 2.634-4.851 7.156-6.36 11.404-3.852m-16.133 40.385l-3.045-3.046-4.967 4.965c-.515.516-1.1.492-1.616-.023l-1.5-1.5c-.514-.515-.538-1.1-.022-1.616l4.967-4.965-3.186-3.186-5.88 5.878c-.492.493-1.078.515-1.593 0l-1.569-1.569c-.516-.515-.492-1.1 0-1.593l8.55-8.548c.493-.492 1.08-.516 1.594 0l14.1 14.103c.515.516.493 1.1 0 1.593l-8.551 8.548c-.492.492-1.077.516-1.593 0l-1.57-1.57c-.515-.515-.49-1.1 0-1.593l5.881-5.878z" fill="#000"/></g></svg>